<svg width="48" height="48" viewBox="0 0 48 48" fill="none" xmlns="http://www.w3.org/2000/svg">
<path d="M24 28.2734L11.1799 41.0935C10.5755 41.6978 9.86331 42 9.04316 42C8.22302 42 7.51079 41.6978 6.90647 41.0935C6.30216 40.4892 6 39.777 6 38.9568C6 38.1367 6.30216 37.4245 6.90647 36.8201L19.7266 24L6.90647 11.1799C6.30216 10.5755 6 9.86331 6 9.04316C6 8.22302 6.30216 7.51079 6.90647 6.90647C7.51079 6.30216 8.22302 6 9.04316 6C9.86331 6 10.5755 6.30216 11.1799 6.90647L24 19.7266L36.8201 6.90647C37.4245 6.30216 38.1367 6 38.9568 6C39.777 6 40.4892 6.30216 41.0935 6.90647C41.6978 7.51079 42 8.22302 42 9.04316C42 9.86331 41.6978 10.5755 41.0935 11.1799L28.2734 24L41.0935 36.8201C41.6978 37.4245 42 38.1367 42 38.9568C42 39.777 41.6978 40.4892 41.0935 41.0935C40.4892 41.6978 39.777 42 38.9568 42C38.1367 42 37.4245 41.6978 36.8201 41.0935L24 28.2734Z" fill="black"/>
</svg>
